Merienda-Bold.otf.ufo
<glyph name="quotedbl" format="1">
  <advance width="403"/>
  <unicode hex="0022"/>
  <outline>
    <contour>
      <point x="223" y="762" type="curve" smooth="yes"/>
      <point x="223" y="820"/>
      <point x="153" y="827"/>
      <point x="97" y="827" type="curve"/>
      <point x="101" y="813" smooth="yes"/>
      <point x="103" y="800" smooth="yes"/>
      <point x="103" y="788" type="curve" smooth="yes"/>
      <point x="103" y="727" smooth="yes"/>
      <point x="70" y="683" smooth="yes"/>
      <point x="70" y="625" type="curve" smooth="yes" name="hr01"/>
      <point x="70" y="581"/>
      <point x="84" y="540"/>
      <point x="185" y="540" type="curve"/>
      <point x="181" y="558" smooth="yes"/>
      <point x="179" y="575" smooth="yes"/>
      <point x="179" y="591" type="curve" smooth="yes"/>
      <point x="179" y="670" smooth="yes"/>
      <point x="223" y="715" smooth="yes"/>
    </contour>
    <contour>
      <point x="403" y="762" type="curve" smooth="yes"/>
      <point x="403" y="820"/>
      <point x="333" y="827"/>
      <point x="277" y="827" type="curve"/>
      <point x="281" y="813" smooth="yes"/>
      <point x="283" y="800" smooth="yes"/>
      <point x="283" y="788" type="curve" smooth="yes"/>
      <point x="283" y="727" smooth="yes"/>
      <point x="250" y="683" smooth="yes"/>
      <point x="250" y="625" type="curve" smooth="yes" name="hr03"/>
      <point x="250" y="581"/>
      <point x="264" y="540"/>
      <point x="365" y="540" type="curve"/>
      <point x="361" y="558" smooth="yes"/>
      <point x="359" y="575" smooth="yes"/>
      <point x="359" y="591" type="curve" smooth="yes"/>
      <point x="359" y="670" smooth="yes"/>
      <point x="403" y="715" smooth="yes"/>
    </contour>
  </outline>
</glyph>
<glyph name="quotesingle" format="1">
  <advance width="223"/>
  <unicode hex="0027"/>
  <outline>
    <contour>
      <point x="223" y="762" type="curve" smooth="yes"/>
      <point x="223" y="820"/>
      <point x="153" y="827"/>
      <point x="97" y="827" type="curve"/>
      <point x="101" y="813" smooth="yes"/>
      <point x="103" y="800" smooth="yes"/>
      <point x="103" y="788" type="curve" smooth="yes"/>
      <point x="103" y="727" smooth="yes"/>
      <point x="70" y="683" smooth="yes"/>
      <point x="70" y="625" type="curve" smooth="yes" name="hr01"/>
      <point x="70" y="581"/>
      <point x="84" y="540"/>
      <point x="185" y="540" type="curve"/>
      <point x="181" y="558" smooth="yes"/>
      <point x="179" y="575" smooth="yes"/>
      <point x="179" y="591" type="curve" smooth="yes"/>
      <point x="179" y="670" smooth="yes"/>
      <point x="223" y="715" smooth="yes"/>
    </contour>
  </outline>
</glyph>
<glyph name="parenleft" format="1">
  <advance width="359"/>
  <unicode hex="0028"/>
  <outline>
    <contour>
      <point x="409" y="765" type="curve" smooth="yes" name="hr00"/>
      <point x="409" y="774"/>
      <point x="397" y="784"/>
      <point x="386" y="787" type="curve"/>
      <point x="183" y="738" smooth="yes"/>
      <point x="50" y="530" smooth="yes"/>
      <point x="50" y="287" type="curve" smooth="yes"/>
      <point x="50" y="75"/>
      <point x="157" y="-99"/>
      <point x="335" y="-143" type="curve"/>
      <point x="346" y="-140"/>
      <point x="360" y="-130"/>
      <point x="362" y="-121" type="curve"/>
      <point x="297" y="-74" smooth="yes"/>
      <point x="189" y="52" smooth="yes"/>
      <point x="189" y="282" type="curve" smooth="yes"/>
      <point x="189" y="470" smooth="yes"/>
      <point x="260" y="660" smooth="yes"/>
    </contour>
  </outline>
</glyph>
<glyph name="plus" format="1">
  <advance width="620"/>
  <unicode hex="002B"/>
  <outline>
    <contour>
      <point x="465" y="424" type="curve" smooth="yes" name="hr00"/>
      <point x="430" y="424"/>
      <point x="399" y="422"/>
      <point x="369" y="420" type="curve"/>
      <point x="370" y="483"/>
      <point x="374" y="546"/>
      <point x="392" y="615" type="curve"/>
      <point x="378" y="616" smooth="yes"/>
      <point x="365" y="616" smooth="yes"/>
      <point x="353" y="616" type="curve" smooth="yes"/>
      <point x="292" y="615" smooth="yes"/>
      <point x="259" y="597" smooth="yes"/>
      <point x="253" y="515" type="curve" smooth="yes"/>
      <point x="250" y="478"/>
      <point x="249" y="444"/>
      <point x="249" y="411" type="curve"/>
      <point x="237" y="410" smooth="yes"/>
      <point x="225" y="410" smooth="yes"/>
      <point x="213" y="410" type="curve" smooth="yes"/>
      <point x="156" y="410"/>
      <point x="105" y="413"/>
      <point x="46" y="421" type="curve"/>
      <point x="46" y="413" smooth="yes"/>
      <point x="45" y="406" smooth="yes"/>
      <point x="45" y="398" type="curve" smooth="yes"/>
      <point x="45" y="335" smooth="yes"/>
      <point x="59" y="289" smooth="yes"/>
      <point x="155" y="289" type="curve" smooth="yes"/>
      <point x="189" y="289"/>
      <point x="220" y="291"/>
      <point x="250" y="293" type="curve"/>
      <point x="249" y="229"/>
      <point x="244" y="166"/>
      <point x="227" y="97" type="curve"/>
      <point x="242" y="96" smooth="yes"/>
      <point x="255" y="96" smooth="yes"/>
      <point x="267" y="96" type="curve" smooth="yes"/>
      <point x="327" y="97" smooth="yes"/>
      <point x="360" y="116" smooth="yes"/>
      <point x="366" y="197" type="curve" smooth="yes"/>
      <point x="368" y="234"/>
      <point x="369" y="268"/>
      <point x="369" y="302" type="curve"/>
      <point x="382" y="302" smooth="yes"/>
      <point x="394" y="303" smooth="yes"/>
      <point x="407" y="303" type="curve" smooth="yes"/>
      <point x="464" y="303"/>
      <point x="515" y="300"/>
      <point x="574" y="292" type="curve"/>
      <point x="574" y="300" smooth="yes"/>
      <point x="575" y="307" smooth="yes"/>
      <point x="575" y="315" type="curve" smooth="yes"/>
      <point x="575" y="378" smooth="yes"/>
      <point x="561" y="424" smooth="yes"/>
    </contour>
  </outline>
</glyph>
<glyph name="three" format="1">
  <advance width="555"/>
  <unicode hex="0033"/>
  <outline>
    <contour>
      <point x="184" y="332" type="line"/>
      <point x="200" y="333"/>
      <point x="215" y="335"/>
      <point x="230" y="337" type="curve"/>
      <point x="318" y="320" smooth="yes"/>
      <point x="356" y="249" smooth="yes"/>
      <point x="356" y="185" type="curve" smooth="yes"/>
      <point x="356" y="93" smooth="yes"/>
      <point x="295" y="48" smooth="yes"/>
      <point x="235" y="48" type="curve" smooth="yes"/>
      <point x="175" y="48" smooth="yes"/>
      <point x="136" y="80" smooth="yes"/>
      <point x="136" y="147" type="curve" smooth="yes"/>
      <point x="136" y="183"/>
      <point x="153" y="223"/>
      <point x="188" y="248" type="curve"/>
      <point x="170" y="253" smooth="yes"/>
      <point x="155" y="255" smooth="yes"/>
      <point x="144" y="255" type="curve" smooth="yes"/>
      <point x="55" y="255" smooth="yes"/>
      <point x="10" y="191" smooth="yes"/>
      <point x="10" y="123" type="curve" smooth="yes"/>
      <point x="10" y="48" smooth="yes"/>
      <point x="70" y="-33" smooth="yes"/>
      <point x="222" y="-33" type="curve" smooth="yes"/>
      <point x="397" y="-33" smooth="yes"/>
      <point x="495" y="74" smooth="yes"/>
      <point x="495" y="194" type="curve" smooth="yes"/>
      <point x="495" y="276"/>
      <point x="441" y="350"/>
      <point x="354" y="373" type="curve"/>
      <point x="448" y="417" smooth="yes"/>
      <point x="486" y="487" smooth="yes"/>
      <point x="486" y="549" type="curve" smooth="yes"/>
      <point x="486" y="637" smooth="yes"/>
      <point x="413" y="717" smooth="yes"/>
      <point x="293" y="717" type="curve" smooth="yes"/>
      <point x="154" y="717" smooth="yes"/>
      <point x="83" y="648" smooth="yes"/>
      <point x="83" y="563" type="curve" smooth="yes" name="hr01"/>
      <point x="83" y="506" smooth="yes"/>
      <point x="125" y="455" smooth="yes"/>
      <point x="198" y="455" type="curve" smooth="yes"/>
      <point x="208" y="455"/>
      <point x="222" y="456"/>
      <point x="239" y="460" type="curve"/>
      <point x="211" y="493" smooth="yes"/>
      <point x="199" y="523" smooth="yes"/>
      <point x="199" y="557" type="curve" smooth="yes"/>
      <point x="199" y="607" smooth="yes"/>
      <point x="234" y="635" smooth="yes"/>
      <point x="276" y="635" type="curve" smooth="yes"/>
      <point x="333" y="635" smooth="yes"/>
      <point x="361" y="599" smooth="yes"/>
      <point x="361" y="548" type="curve" smooth="yes"/>
      <point x="361" y="479"/>
      <point x="301" y="392"/>
      <point x="179" y="371" type="curve"/>
    </contour>
  </outline>
</glyph>
<glyph name="colon" format="1">
  <advance width="286"/>
  <unicode hex="003A"/>
  <outline>
    <contour>
      <point x="205" y="-1" type="curve"/>
      <point x="213" y="28" smooth="yes"/>
      <point x="223" y="55" smooth="yes"/>
      <point x="223" y="84" type="curve" smooth="yes"/>
      <point x="223" y="134" smooth="yes"/>
      <point x="186" y="146" smooth="yes"/>
      <point x="149" y="146" type="curve" smooth="yes"/>
      <point x="125" y="146"/>
      <point x="99" y="142"/>
      <point x="78" y="136" type="curve"/>
      <point x="70" y="107" smooth="yes"/>
      <point x="60" y="80" smooth="yes"/>
      <point x="60" y="51" type="curve" smooth="yes"/>
      <point x="60" y="1" smooth="yes"/>
      <point x="97" y="-11" smooth="yes"/>
      <point x="134" y="-11" type="curve" smooth="yes"/>
      <point x="158" y="-11"/>
      <point x="184" y="-7"/>
    </contour>
    <contour>
      <point x="238" y="407" type="curve"/>
      <point x="246" y="436" smooth="yes"/>
      <point x="256" y="463" smooth="yes"/>
      <point x="256" y="492" type="curve" smooth="yes" name="hr01"/>
      <point x="256" y="542" smooth="yes"/>
      <point x="219" y="554" smooth="yes"/>
      <point x="182" y="554" type="curve" smooth="yes"/>
      <point x="158" y="554"/>
      <point x="132" y="550"/>
      <point x="111" y="544" type="curve"/>
      <point x="103" y="515" smooth="yes"/>
      <point x="93" y="488" smooth="yes"/>
      <point x="93" y="459" type="curve" smooth="yes"/>
      <point x="93" y="409" smooth="yes"/>
      <point x="130" y="397" smooth="yes"/>
      <point x="167" y="397" type="curve" smooth="yes"/>
      <point x="191" y="397"/>
      <point x="217" y="401"/>
    </contour>
  </outline>
</glyph>
<glyph name="equal" format="1">
  <advance width="620"/>
  <unicode hex="003D"/>
  <outline>
    <contour>
      <point x="465" y="543" type="curve" smooth="yes" name="hr00"/>
      <point x="367" y="543" smooth="yes"/>
      <point x="293" y="529" smooth="yes"/>
      <point x="213" y="529" type="curve" smooth="yes"/>
      <point x="156" y="529"/>
      <point x="105" y="532"/>
      <point x="46" y="540" type="curve"/>
      <point x="46" y="532" smooth="yes"/>
      <point x="45" y="525" smooth="yes"/>
      <point x="45" y="517" type="curve" smooth="yes"/>
      <point x="45" y="454" smooth="yes"/>
      <point x="59" y="408" smooth="yes"/>
      <point x="155" y="408" type="curve" smooth="yes"/>
      <point x="253" y="408" smooth="yes"/>
      <point x="327" y="422" smooth="yes"/>
      <point x="407" y="422" type="curve" smooth="yes"/>
      <point x="464" y="422"/>
      <point x="515" y="419"/>
      <point x="574" y="411" type="curve"/>
      <point x="574" y="419" smooth="yes"/>
      <point x="575" y="426" smooth="yes"/>
      <point x="575" y="434" type="curve" smooth="yes"/>
      <point x="575" y="497" smooth="yes"/>
      <point x="561" y="543" smooth="yes"/>
    </contour>
    <contour>
      <point x="465" y="305" type="curve" smooth="yes"/>
      <point x="367" y="305" smooth="yes"/>
      <point x="293" y="291" smooth="yes"/>
      <point x="213" y="291" type="curve" smooth="yes"/>
      <point x="156" y="291"/>
      <point x="105" y="294"/>
      <point x="46" y="302" type="curve"/>
      <point x="46" y="294" smooth="yes"/>
      <point x="45" y="287" smooth="yes"/>
      <point x="45" y="279" type="curve" smooth="yes"/>
      <point x="45" y="216" smooth="yes"/>
      <point x="59" y="170" smooth="yes"/>
      <point x="155" y="170" type="curve" smooth="yes"/>
      <point x="253" y="170" smooth="yes"/>
      <point x="327" y="184" smooth="yes"/>
      <point x="407" y="184" type="curve" smooth="yes"/>
      <point x="464" y="184"/>
      <point x="515" y="181"/>
      <point x="574" y="173" type="curve"/>
      <point x="574" y="181" smooth="yes"/>
      <point x="575" y="188" smooth="yes"/>
      <point x="575" y="196" type="curve" smooth="yes"/>
      <point x="575" y="259" smooth="yes"/>
      <point x="561" y="305" smooth="yes"/>
    </contour>
  </outline>
</glyph>
<glyph name="greater" format="1">
  <advance width="620"/>
  <unicode hex="003E"/>
  <outline>
    <contour>
      <point x="530" y="423" type="curve" name="hr00"/>
      <point x="352" y="510" smooth="yes"/>
      <point x="235" y="640" smooth="yes"/>
      <point x="142" y="640" type="curve" smooth="yes"/>
      <point x="107" y="640"/>
      <point x="85" y="608"/>
      <point x="70" y="541" type="curve"/>
      <point x="182" y="500"/>
      <point x="290" y="418"/>
      <point x="390" y="368" type="curve"/>
      <point x="290" y="318"/>
      <point x="179" y="233"/>
      <point x="70" y="195" type="curve"/>
      <point x="85" y="128" smooth="yes"/>
      <point x="107" y="96" smooth="yes"/>
      <point x="142" y="96" type="curve" smooth="yes"/>
      <point x="235" y="96"/>
      <point x="352" y="226"/>
      <point x="530" y="313" type="curve"/>
      <point x="543" y="331" smooth="yes"/>
      <point x="550" y="352" smooth="yes"/>
      <point x="550" y="371" type="curve" smooth="yes"/>
      <point x="550" y="390"/>
      <point x="543" y="409"/>
    </contour>
  </outline>
</glyph>
<glyph name="F" format="1">
  <advance width="520"/>
  <unicode hex="0046"/>
  <outline>
    <contour>
      <point x="78" y="731" type="curve" smooth="yes" name="hr00"/>
      <point x="78" y="669"/>
      <point x="86" y="655"/>
      <point x="156" y="655" type="curve"/>
      <point x="153" y="579"/>
      <point x="143" y="497"/>
      <point x="133" y="418" type="curve"/>
      <point x="95" y="407" smooth="yes"/>
      <point x="70" y="384" smooth="yes"/>
      <point x="70" y="332" type="curve" smooth="yes"/>
      <point x="70" y="321"/>
      <point x="71" y="310"/>
      <point x="72" y="299" type="curve"/>
      <point x="87" y="306"/>
      <point x="103" y="311"/>
      <point x="119" y="316" type="curve"/>
      <point x="104" y="213" smooth="yes"/>
      <point x="91" y="123" smooth="yes"/>
      <point x="91" y="69" type="curve" smooth="yes"/>
      <point x="91" y="7" smooth="yes"/>
      <point x="122" y="-17" smooth="yes"/>
      <point x="198" y="-17" type="curve" smooth="yes"/>
      <point x="210" y="-17"/>
      <point x="224" y="-16"/>
      <point x="240" y="-15" type="curve"/>
      <point x="234" y="20" smooth="yes"/>
      <point x="234" y="52" smooth="yes"/>
      <point x="234" y="83" type="curve" smooth="yes"/>
      <point x="234" y="169"/>
      <point x="241" y="255"/>
      <point x="250" y="334" type="curve"/>
      <point x="272" y="335" smooth="yes"/>
      <point x="293" y="335" smooth="yes"/>
      <point x="313" y="335" type="curve" smooth="yes"/>
      <point x="342" y="335" smooth="yes"/>
      <point x="373" y="334" smooth="yes"/>
      <point x="409" y="334" type="curve" smooth="yes"/>
      <point x="450" y="334" smooth="yes"/>
      <point x="477" y="357" smooth="yes"/>
      <point x="477" y="425" type="curve" smooth="yes"/>
      <point x="477" y="435"/>
      <point x="476" y="445"/>
      <point x="475" y="455" type="curve"/>
      <point x="442" y="428" smooth="yes"/>
      <point x="391" y="422" smooth="yes"/>
      <point x="340" y="422" type="curve" smooth="yes"/>
      <point x="320" y="422"/>
      <point x="290" y="423"/>
      <point x="261" y="424" type="curve"/>
      <point x="273" y="518"/>
      <point x="286" y="600"/>
      <point x="290" y="657" type="curve"/>
      <point x="355" y="659" smooth="yes"/>
      <point x="422" y="664" smooth="yes"/>
      <point x="467" y="673" type="curve" smooth="yes"/>
      <point x="532" y="685"/>
      <point x="584" y="717"/>
      <point x="595" y="799" type="curve"/>
      <point x="511" y="783" smooth="yes"/>
      <point x="415" y="775" smooth="yes"/>
      <point x="318" y="775" type="curve" smooth="yes"/>
      <point x="240" y="775"/>
      <point x="161" y="780"/>
      <point x="86" y="790" type="curve"/>
      <point x="82" y="778" smooth="yes"/>
      <point x="78" y="757" smooth="yes"/>
    </contour>
  </outline>
</glyph>
<glyph name="H" format="1">
  <advance width="791"/>
  <unicode hex="0048"/>
  <outline>
    <contour>
      <point x="302" y="684" type="curve" smooth="yes"/>
      <point x="302" y="753"/>
      <point x="296" y="796"/>
      <point x="157" y="802" type="curve"/>
      <point x="159" y="776" smooth="yes"/>
      <point x="161" y="748" smooth="yes"/>
      <point x="161" y="720" type="curve" smooth="yes"/>
      <point x="161" y="624"/>
      <point x="151" y="523"/>
      <point x="139" y="430" type="curve"/>
      <point x="100" y="420" smooth="yes"/>
      <point x="75" y="396" smooth="yes"/>
      <point x="75" y="344" type="curve" smooth="yes"/>
      <point x="75" y="333"/>
      <point x="76" y="322"/>
      <point x="77" y="311" type="curve"/>
      <point x="93" y="317"/>
      <point x="108" y="322"/>
      <point x="125" y="327" type="curve"/>
      <point x="112" y="263" smooth="yes"/>
      <point x="103" y="194" smooth="yes"/>
      <point x="103" y="129" type="curve" smooth="yes" name="hr01"/>
      <point x="103" y="46"/>
      <point x="132" y="-1"/>
      <point x="250" y="-31" type="curve"/>
      <point x="241" y="-10" smooth="yes"/>
      <point x="236" y="29" smooth="yes"/>
      <point x="236" y="78" type="curve" smooth="yes"/>
      <point x="236" y="150"/>
      <point x="247" y="249"/>
      <point x="260" y="346" type="curve"/>
      <point x="282" y="347" smooth="yes"/>
      <point x="305" y="348" smooth="yes"/>
      <point x="327" y="348" type="curve" smooth="yes"/>
      <point x="378" y="348" smooth="yes"/>
      <point x="428" y="346" smooth="yes"/>
      <point x="477" y="346" type="curve" smooth="yes"/>
      <point x="500" y="346"/>
      <point x="529" y="348"/>
      <point x="549" y="366" type="curve"/>
      <point x="543" y="322" type="line" smooth="yes"/>
      <point x="532" y="241" smooth="yes"/>
      <point x="522" y="173" smooth="yes"/>
      <point x="522" y="129" type="curve" smooth="yes"/>
      <point x="522" y="46"/>
      <point x="551" y="-1"/>
      <point x="669" y="-31" type="curve"/>
      <point x="660" y="-10" smooth="yes"/>
      <point x="655" y="29" smooth="yes"/>
      <point x="655" y="78" type="curve" smooth="yes"/>
      <point x="655" y="180" smooth="yes"/>
      <point x="677" y="334" smooth="yes"/>
      <point x="696" y="464" type="curve" smooth="yes"/>
      <point x="710" y="560" smooth="yes"/>
      <point x="721" y="643" smooth="yes"/>
      <point x="721" y="684" type="curve" smooth="yes" name="hr02"/>
      <point x="721" y="753"/>
      <point x="715" y="796"/>
      <point x="576" y="802" type="curve"/>
      <point x="578" y="776" smooth="yes"/>
      <point x="580" y="748" smooth="yes"/>
      <point x="580" y="720" type="curve" smooth="yes"/>
      <point x="580" y="627"/>
      <point x="570" y="529"/>
      <point x="559" y="439" type="curve"/>
      <point x="439" y="437"/>
      <point x="338" y="437"/>
      <point x="273" y="437" type="curve"/>
      <point x="282" y="520" smooth="yes"/>
      <point x="302" y="602" smooth="yes"/>
    </contour>
  </outline>
</glyph>
<glyph name="J" format="1">
  <advance width="518"/>
  <unicode hex="004A"/>
  <outline>
    <contour>
      <point x="141" y="36" type="curve" smooth="yes" name="hr00"/>
      <point x="97" y="36" smooth="yes"/>
      <point x="74" y="76" smooth="yes"/>
      <point x="74" y="124" type="curve" smooth="yes"/>
      <point x="74" y="168"/>
      <point x="93" y="219"/>
      <point x="129" y="250" type="curve"/>
      <point x="109" y="262" smooth="yes"/>
      <point x="90" y="266" smooth="yes"/>
      <point x="71" y="266" type="curve" smooth="yes"/>
      <point x="-16" y="266" smooth="yes"/>
      <point x="-58" y="198" smooth="yes"/>
      <point x="-58" y="132" type="curve" smooth="yes"/>
      <point x="-58" y="49" smooth="yes"/>
      <point x="-1" y="-36" smooth="yes"/>
      <point x="133" y="-36" type="curve" smooth="yes"/>
      <point x="249" y="-36" smooth="yes"/>
      <point x="360" y="26" smooth="yes"/>
      <point x="380" y="323" type="curve" smooth="yes"/>
      <point x="384" y="380"/>
      <point x="396" y="525"/>
      <point x="409" y="658" type="curve"/>
      <point x="440" y="664" type="line" smooth="yes"/>
      <point x="479" y="671"/>
      <point x="549" y="708"/>
      <point x="558" y="799" type="curve"/>
      <point x="481" y="775" smooth="yes"/>
      <point x="401" y="763" smooth="yes"/>
      <point x="321" y="763" type="curve" smooth="yes"/>
      <point x="266" y="763"/>
      <point x="210" y="768"/>
      <point x="155" y="781" type="curve"/>
      <point x="152" y="768" smooth="yes"/>
      <point x="149" y="746" smooth="yes"/>
      <point x="149" y="721" type="curve" smooth="yes"/>
      <point x="149" y="682" smooth="yes"/>
      <point x="161" y="643" smooth="yes"/>
      <point x="209" y="643" type="curve" smooth="yes"/>
      <point x="225" y="643"/>
      <point x="246" y="643"/>
      <point x="270" y="645" type="curve"/>
      <point x="252" y="295" smooth="yes"/>
      <point x="277" y="36" smooth="yes"/>
    </contour>
  </outline>
</glyph>
<glyph name="R" format="1">
  <advance width="675"/>
  <unicode hex="0052"/>
  <outline>
    <contour>
      <point x="80" y="69" type="curve" smooth="yes"/>
      <point x="80" y="7" smooth="yes"/>
      <point x="111" y="-17" smooth="yes"/>
      <point x="187" y="-17" type="curve" smooth="yes"/>
      <point x="199" y="-17"/>
      <point x="213" y="-16"/>
      <point x="229" y="-15" type="curve"/>
      <point x="223" y="20" smooth="yes"/>
      <point x="223" y="52" smooth="yes"/>
      <point x="223" y="83" type="curve" smooth="yes"/>
      <point x="223" y="331" smooth="yes"/>
      <point x="280" y="573" smooth="yes"/>
      <point x="280" y="683" type="curve" smooth="yes" name="hr01"/>
      <point x="313" y="699" smooth="yes"/>
      <point x="344" y="705" smooth="yes"/>
      <point x="371" y="705" type="curve" smooth="yes"/>
      <point x="465" y="705" smooth="yes"/>
      <point x="509" y="642" smooth="yes"/>
      <point x="509" y="570" type="curve" smooth="yes"/>
      <point x="509" y="472"/>
      <point x="455" y="357"/>
      <point x="275" y="357" type="curve"/>
      <point x="278" y="315" type="line"/>
      <point x="296" y="312"/>
      <point x="313" y="311"/>
      <point x="330" y="311" type="curve"/>
      <point x="389" y="140" smooth="yes"/>
      <point x="467" y="-48" smooth="yes"/>
      <point x="606" y="-48" type="curve" smooth="yes"/>
      <point x="626" y="-48"/>
      <point x="649" y="-45"/>
      <point x="675" y="-38" type="curve"/>
      <point x="631" y="3"/>
      <point x="513" y="166"/>
      <point x="459" y="334" type="curve"/>
      <point x="575" y="380" smooth="yes"/>
      <point x="636" y="489" smooth="yes"/>
      <point x="636" y="589" type="curve" smooth="yes"/>
      <point x="636" y="694" smooth="yes"/>
      <point x="569" y="788" smooth="yes"/>
      <point x="430" y="788" type="curve" smooth="yes"/>
      <point x="382" y="788"/>
      <point x="322" y="776"/>
      <point x="267" y="746" type="curve"/>
      <point x="246" y="793"/>
      <point x="199" y="821"/>
      <point x="133" y="826" type="curve"/>
      <point x="142" y="806" smooth="yes"/>
      <point x="147" y="767" smooth="yes"/>
      <point x="147" y="716" type="curve" smooth="yes"/>
      <point x="147" y="493" smooth="yes"/>
      <point x="80" y="190" smooth="yes"/>
    </contour>
  </outline>
</glyph>
<glyph name="S" format="1">
  <advance width="631"/>
  <unicode hex="0053"/>
  <outline>
    <contour>
      <point x="233" y="626" type="curve" smooth="yes"/>
      <point x="233" y="705" smooth="yes"/>
      <point x="286" y="738" smooth="yes"/>
      <point x="343" y="738" type="curve" smooth="yes"/>
      <point x="400" y="738" smooth="yes"/>
      <point x="448" y="700" smooth="yes"/>
      <point x="448" y="630" type="curve" smooth="yes"/>
      <point x="448" y="595"/>
      <point x="435" y="549"/>
      <point x="398" y="511" type="curve"/>
      <point x="414" y="508" smooth="yes"/>
      <point x="429" y="507" smooth="yes"/>
      <point x="441" y="507" type="curve" smooth="yes"/>
      <point x="530" y="507" smooth="yes"/>
      <point x="580" y="573" smooth="yes"/>
      <point x="580" y="644" type="curve" smooth="yes"/>
      <point x="580" y="718" smooth="yes"/>
      <point x="507" y="812" smooth="yes"/>
      <point x="358" y="812" type="curve" smooth="yes"/>
      <point x="182" y="812" smooth="yes"/>
      <point x="90" y="727" smooth="yes"/>
      <point x="90" y="598" type="curve" smooth="yes"/>
      <point x="90" y="383" smooth="yes"/>
      <point x="418" y="312" smooth="yes"/>
      <point x="418" y="164" type="curve" smooth="yes" name="hr01"/>
      <point x="418" y="87" smooth="yes"/>
      <point x="355" y="56" smooth="yes"/>
      <point x="303" y="56" type="curve" smooth="yes"/>
      <point x="213" y="56" smooth="yes"/>
      <point x="172" y="119" smooth="yes"/>
      <point x="172" y="188" type="curve" smooth="yes"/>
      <point x="172" y="222"/>
      <point x="183" y="256"/>
      <point x="203" y="286" type="curve"/>
      <point x="191" y="289" smooth="yes"/>
      <point x="179" y="290" smooth="yes"/>
      <point x="169" y="290" type="curve" smooth="yes"/>
      <point x="89" y="290" smooth="yes"/>
      <point x="32" y="236" smooth="yes"/>
      <point x="32" y="154" type="curve" smooth="yes"/>
      <point x="32" y="63" smooth="yes"/>
      <point x="124" y="-25" smooth="yes"/>
      <point x="290" y="-25" type="curve" smooth="yes"/>
      <point x="461" y="-25" smooth="yes"/>
      <point x="569" y="67" smooth="yes"/>
      <point x="569" y="189" type="curve" smooth="yes"/>
      <point x="569" y="398" smooth="yes"/>
      <point x="233" y="453" smooth="yes"/>
    </contour>
  </outline>
</glyph>
<glyph name="U" format="1">
  <advance width="755"/>
  <unicode hex="0055"/>
  <outline>
    <contour>
      <point x="685" y="684" type="curve" smooth="yes"/>
      <point x="685" y="753"/>
      <point x="679" y="796"/>
      <point x="540" y="802" type="curve"/>
      <point x="542" y="776" smooth="yes"/>
      <point x="544" y="748" smooth="yes"/>
      <point x="544" y="720" type="curve" smooth="yes"/>
      <point x="544" y="641" smooth="yes"/>
      <point x="537" y="559" smooth="yes"/>
      <point x="528" y="481" type="curve" smooth="yes"/>
      <point x="490" y="143" smooth="yes"/>
      <point x="369" y="77" smooth="yes"/>
      <point x="301" y="77" type="curve" smooth="yes"/>
      <point x="250" y="77" smooth="yes"/>
      <point x="210" y="107" smooth="yes"/>
      <point x="210" y="239" type="curve" smooth="yes"/>
      <point x="210" y="386" smooth="yes"/>
      <point x="250" y="518" smooth="yes"/>
      <point x="250" y="653" type="curve" smooth="yes" name="hr01"/>
      <point x="250" y="729"/>
      <point x="218" y="773"/>
      <point x="104" y="802" type="curve"/>
      <point x="111" y="783" smooth="yes"/>
      <point x="115" y="750" smooth="yes"/>
      <point x="115" y="707" type="curve" smooth="yes"/>
      <point x="115" y="606" smooth="yes"/>
      <point x="70" y="354" smooth="yes"/>
      <point x="70" y="220" type="curve" smooth="yes" name="hr02"/>
      <point x="70" y="50" smooth="yes"/>
      <point x="129" y="-20" smooth="yes"/>
      <point x="238" y="-20" type="curve" smooth="yes"/>
      <point x="356" y="-20"/>
      <point x="435" y="57"/>
      <point x="487" y="160" type="curve"/>
      <point x="486" y="152" smooth="yes"/>
      <point x="486" y="138" smooth="yes"/>
      <point x="486" y="129" type="curve" smooth="yes"/>
      <point x="486" y="46"/>
      <point x="515" y="-1"/>
      <point x="633" y="-31" type="curve" name="hr03"/>
      <point x="624" y="-10" smooth="yes"/>
      <point x="619" y="29" smooth="yes"/>
      <point x="619" y="78" type="curve" smooth="yes"/>
      <point x="619" y="180" smooth="yes"/>
      <point x="641" y="334" smooth="yes"/>
      <point x="660" y="464" type="curve" smooth="yes"/>
      <point x="674" y="560" smooth="yes"/>
      <point x="685" y="643" smooth="yes"/>
    </contour>
  </outline>
</glyph>
<glyph name="Z" format="1">
  <advance width="612"/>
  <unicode hex="005A"/>
  <outline>
    <contour>
      <point x="76" y="719" type="curve" smooth="yes" name="hr00"/>
      <point x="76" y="676" smooth="yes"/>
      <point x="84" y="627" smooth="yes"/>
      <point x="124" y="627" type="curve" smooth="yes"/>
      <point x="189" y="627"/>
      <point x="414" y="671"/>
      <point x="470" y="683" type="curve"/>
      <point x="386" y="530"/>
      <point x="235" y="318"/>
      <point x="45" y="94" type="curve"/>
      <point x="-24" y="69"/>
      <point x="-44" y="13"/>
      <point x="-50" y="-10" type="curve"/>
      <point x="12" y="6" smooth="yes"/>
      <point x="84" y="10" smooth="yes"/>
      <point x="147" y="10" type="curve" smooth="yes"/>
      <point x="268" y="10" smooth="yes"/>
      <point x="349" y="-12" smooth="yes"/>
      <point x="418" y="-12" type="curve" smooth="yes"/>
      <point x="489" y="-12"/>
      <point x="541" y="44"/>
      <point x="553" y="144" type="curve"/>
      <point x="486" y="122"/>
      <point x="340" y="106"/>
      <point x="179" y="106" type="curve"/>
      <point x="349" y="368" smooth="yes"/>
      <point x="602" y="582" smooth="yes"/>
      <point x="602" y="706" type="curve" smooth="yes"/>
      <point x="602" y="738"/>
      <point x="584" y="790"/>
      <point x="536" y="838" type="curve"/>
      <point x="532" y="819"/>
      <point x="524" y="797"/>
      <point x="514" y="773" type="curve"/>
      <point x="470" y="768" smooth="yes"/>
      <point x="421" y="767" smooth="yes"/>
      <point x="376" y="767" type="curve" smooth="yes"/>
      <point x="238" y="767"/>
      <point x="113" y="780"/>
      <point x="84" y="784" type="curve"/>
      <point x="80" y="772" smooth="yes"/>
      <point x="76" y="747" smooth="yes"/>
    </contour>
  </outline>
</glyph>
<glyph name="bracketright" format="1">
  <advance width="379"/>
  <unicode hex="005D"/>
  <outline>
    <contour>
      <point x="50" y="-139" type="line" smooth="yes"/>
      <point x="153" y="-139" smooth="yes"/>
      <point x="204" y="-117" smooth="yes"/>
      <point x="207" y="-69" type="curve" smooth="yes"/>
      <point x="216" y="73" smooth="yes"/>
      <point x="215" y="105" smooth="yes"/>
      <point x="230" y="323" type="curve" smooth="yes"/>
      <point x="245" y="540" smooth="yes"/>
      <point x="264" y="670" smooth="yes"/>
      <point x="264" y="718" type="curve" smooth="yes" name="hr01"/>
      <point x="264" y="763" smooth="yes"/>
      <point x="217" y="783" smooth="yes"/>
      <point x="117" y="783" type="curve" smooth="yes"/>
      <point x="47" y="783" type="line" smooth="yes"/>
      <point x="23" y="783"/>
      <point x="10" y="760"/>
      <point x="7" y="709" type="curve"/>
      <point x="30" y="711"/>
      <point x="74" y="714"/>
      <point x="118" y="715" type="curve"/>
      <point x="118" y="705" type="line" smooth="yes"/>
      <point x="118" y="581" smooth="yes"/>
      <point x="113" y="405" smooth="yes"/>
      <point x="107" y="323" type="curve" smooth="yes"/>
      <point x="101" y="239"/>
      <point x="79" y="50"/>
      <point x="61" y="-71" type="curve"/>
      <point x="14" y="-70"/>
      <point x="-35" y="-67"/>
      <point x="-60" y="-65" type="curve"/>
      <point x="-57" y="-116" smooth="yes"/>
      <point x="-44" y="-139" smooth="yes"/>
      <point x="-20" y="-139" type="curve" smooth="yes"/>
    </contour>
  </outline>
</glyph>
<glyph name="b" format="1">
  <advance width="641"/>
  <unicode hex="0062"/>
  <outline>
    <contour>
      <point x="268" y="764" type="curve" smooth="yes"/>
      <point x="268" y="852"/>
      <point x="247" y="929"/>
      <point x="144" y="957" type="curve"/>
      <point x="150" y="911" smooth="yes"/>
      <point x="153" y="864" smooth="yes"/>
      <point x="153" y="817" type="curve" smooth="yes"/>
      <point x="153" y="582" smooth="yes"/>
      <point x="86" y="350" smooth="yes"/>
      <point x="86" y="189" type="curve" smooth="yes" name="hr01"/>
      <point x="86" y="82"/>
      <point x="129" y="5"/>
      <point x="230" y="-18" type="curve"/>
      <point x="217" y="27" smooth="yes"/>
      <point x="211" y="74" smooth="yes"/>
      <point x="211" y="119" type="curve" smooth="yes"/>
      <point x="211" y="304" smooth="yes"/>
      <point x="305" y="473" smooth="yes"/>
      <point x="369" y="473" type="curve" smooth="yes"/>
      <point x="418" y="473" smooth="yes"/>
      <point x="437" y="412" smooth="yes"/>
      <point x="437" y="350" type="curve" smooth="yes"/>
      <point x="437" y="229"/>
      <point x="376" y="49"/>
      <point x="257" y="16" type="curve"/>
      <point x="281" y="6" smooth="yes"/>
      <point x="303" y="1" smooth="yes"/>
      <point x="328" y="1" type="curve" smooth="yes"/>
      <point x="468" y="1" smooth="yes"/>
      <point x="585" y="166" smooth="yes"/>
      <point x="585" y="360" type="curve" smooth="yes"/>
      <point x="585" y="491" smooth="yes"/>
      <point x="509" y="577" smooth="yes"/>
      <point x="431" y="577" type="curve" smooth="yes"/>
      <point x="340" y="577"/>
      <point x="262" y="498"/>
      <point x="222" y="357" type="curve"/>
      <point x="237" y="528" smooth="yes"/>
      <point x="268" y="680" smooth="yes"/>
    </contour>
  </outline>
</glyph>
<glyph name="c" format="1">
  <advance width="545"/>
  <unicode hex="0063"/>
  <outline>
    <contour>
      <point x="193" y="226" type="curve" smooth="yes" name="hr00"/>
      <point x="193" y="357" smooth="yes"/>
      <point x="245" y="515" smooth="yes"/>
      <point x="333" y="515" type="curve" smooth="yes"/>
      <point x="371" y="515" smooth="yes"/>
      <point x="383" y="487" smooth="yes"/>
      <point x="383" y="452" type="curve" smooth="yes"/>
      <point x="383" y="408"/>
      <point x="362" y="352"/>
      <point x="345" y="333" type="curve"/>
      <point x="362" y="326" smooth="yes"/>
      <point x="378" y="323" smooth="yes"/>
      <point x="393" y="323" type="curve" smooth="yes"/>
      <point x="461" y="323" smooth="yes"/>
      <point x="505" y="386" smooth="yes"/>
      <point x="505" y="449" type="curve" smooth="yes"/>
      <point x="505" y="513" smooth="yes"/>
      <point x="460" y="577" smooth="yes"/>
      <point x="350" y="577" type="curve" smooth="yes"/>
      <point x="158" y="577" smooth="yes"/>
      <point x="50" y="407" smooth="yes"/>
      <point x="50" y="221" type="curve" smooth="yes"/>
      <point x="50" y="58" smooth="yes"/>
      <point x="146" y="-15" smooth="yes"/>
      <point x="247" y="-15" type="curve" smooth="yes"/>
      <point x="315" y="-15"/>
      <point x="410" y="13"/>
      <point x="472" y="120" type="curve"/>
      <point x="472" y="138"/>
      <point x="458" y="152"/>
      <point x="436" y="157" type="curve"/>
      <point x="396" y="94" smooth="yes"/>
      <point x="340" y="59" smooth="yes"/>
      <point x="291" y="59" type="curve" smooth="yes"/>
      <point x="228" y="59" smooth="yes"/>
      <point x="193" y="116" smooth="yes"/>
    </contour>
  </outline>
</glyph>
<glyph name="k" format="1">
  <advance width="574"/>
  <unicode hex="006B"/>
  <outline>
    <contour>
      <point x="203" y="309" type="curve"/>
      <point x="220" y="494" smooth="yes"/>
      <point x="249" y="664" smooth="yes"/>
      <point x="249" y="751" type="curve" smooth="yes" name="hr01"/>
      <point x="249" y="845"/>
      <point x="223" y="898"/>
      <point x="119" y="926" type="curve"/>
      <point x="127" y="906" smooth="yes"/>
      <point x="131" y="864" smooth="yes"/>
      <point x="131" y="809" type="curve" smooth="yes"/>
      <point x="131" y="515" smooth="yes"/>
      <point x="60" y="192" smooth="yes"/>
      <point x="60" y="83" type="curve" smooth="yes" name="hr02"/>
      <point x="60" y="21" smooth="yes"/>
      <point x="91" y="-2" smooth="yes"/>
      <point x="167" y="-2" type="curve" smooth="yes"/>
      <point x="179" y="-2"/>
      <point x="193" y="-1"/>
      <point x="209" y="0" type="curve"/>
      <point x="203" y="35" smooth="yes"/>
      <point x="203" y="63" smooth="yes"/>
      <point x="203" y="94" type="curve" smooth="yes"/>
      <point x="203" y="315" smooth="yes"/>
      <point x="296" y="495" smooth="yes"/>
      <point x="370" y="495" type="curve" smooth="yes"/>
      <point x="400" y="495" smooth="yes"/>
      <point x="414" y="467" smooth="yes"/>
      <point x="414" y="433" type="curve" smooth="yes"/>
      <point x="414" y="368"/>
      <point x="368" y="277"/>
      <point x="238" y="275" type="curve"/>
      <point x="238" y="258"/>
      <point x="240" y="246"/>
      <point x="244" y="243" type="curve"/>
      <point x="257" y="243"/>
      <point x="269" y="243"/>
      <point x="282" y="244" type="curve"/>
      <point x="345" y="69" smooth="yes"/>
      <point x="410" y="-120" smooth="yes"/>
      <point x="547" y="-120" type="curve" smooth="yes"/>
      <point x="566" y="-120"/>
      <point x="587" y="-117"/>
      <point x="611" y="-111" type="curve"/>
      <point x="570" y="-73" smooth="yes"/>
      <point x="462" y="77" smooth="yes"/>
      <point x="413" y="231" type="curve" smooth="yes"/>
      <point x="401" y="268" type="line"/>
      <point x="485" y="299" smooth="yes"/>
      <point x="537" y="365" smooth="yes"/>
      <point x="537" y="445" type="curve" smooth="yes"/>
      <point x="537" y="525" smooth="yes"/>
      <point x="494" y="579" smooth="yes"/>
      <point x="414" y="579" type="curve" smooth="yes"/>
      <point x="334" y="579"/>
      <point x="241" y="505"/>
    </contour>
  </outline>
</glyph>
<glyph name="l" format="1">
  <advance width="299"/>
  <unicode hex="006C"/>
  <outline>
    <contour>
      <point x="67" y="117" type="curve" smooth="yes"/>
      <point x="67" y="39"/>
      <point x="72" y="-9"/>
      <point x="198" y="-15" type="curve"/>
      <point x="196" y="14" smooth="yes"/>
      <point x="194" y="44" smooth="yes"/>
      <point x="194" y="75" type="curve" smooth="yes"/>
      <point x="194" y="336" smooth="yes"/>
      <point x="252" y="628" smooth="yes"/>
      <point x="252" y="751" type="curve" smooth="yes" name="hr01"/>
      <point x="252" y="845"/>
      <point x="226" y="898"/>
      <point x="122" y="926" type="curve"/>
      <point x="130" y="906" smooth="yes"/>
      <point x="134" y="864" smooth="yes"/>
      <point x="134" y="809" type="curve" smooth="yes"/>
      <point x="134" y="606" smooth="yes"/>
      <point x="67" y="226" smooth="yes"/>
    </contour>
  </outline>
</glyph>
<glyph name="r" format="1">
  <advance width="463"/>
  <unicode hex="0072"/>
  <outline>
    <contour>
      <point x="217" y="325" type="curve"/>
      <point x="222" y="354" smooth="yes"/>
      <point x="226" y="403" smooth="yes"/>
      <point x="226" y="427" type="curve" smooth="yes"/>
      <point x="226" y="504"/>
      <point x="199" y="565"/>
      <point x="95" y="598" type="curve"/>
      <point x="107" y="551" smooth="yes"/>
      <point x="112" y="500" smooth="yes"/>
      <point x="112" y="448" type="curve" smooth="yes"/>
      <point x="112" y="315" smooth="yes"/>
      <point x="70" y="142" smooth="yes"/>
      <point x="70" y="84" type="curve" smooth="yes" name="hr01"/>
      <point x="70" y="22" smooth="yes"/>
      <point x="101" y="-2" smooth="yes"/>
      <point x="177" y="-2" type="curve" smooth="yes"/>
      <point x="189" y="-2"/>
      <point x="202" y="-1"/>
      <point x="218" y="0" type="curve"/>
      <point x="216" y="30" smooth="yes"/>
      <point x="213" y="58" smooth="yes"/>
      <point x="213" y="85" type="curve" smooth="yes"/>
      <point x="213" y="315" smooth="yes"/>
      <point x="294" y="458" smooth="yes"/>
      <point x="343" y="458" type="curve" smooth="yes"/>
      <point x="361" y="458" smooth="yes"/>
      <point x="368" y="445" smooth="yes"/>
      <point x="368" y="426" type="curve" smooth="yes"/>
      <point x="368" y="391"/>
      <point x="351" y="351"/>
      <point x="338" y="332" type="curve"/>
      <point x="349" y="327" smooth="yes"/>
      <point x="361" y="325" smooth="yes"/>
      <point x="374" y="325" type="curve" smooth="yes"/>
      <point x="453" y="325" smooth="yes"/>
      <point x="485" y="399" smooth="yes"/>
      <point x="485" y="466" type="curve" smooth="yes"/>
      <point x="485" y="524" smooth="yes"/>
      <point x="457" y="578" smooth="yes"/>
      <point x="400" y="578" type="curve" smooth="yes"/>
      <point x="347" y="578"/>
      <point x="269" y="513"/>
    </contour>
  </outline>
</glyph>
<glyph name="u" format="1">
  <advance width="606"/>
  <unicode hex="0075"/>
  <outline>
    <contour>
      <point x="393" y="577" type="curve"/>
      <point x="401" y="547" smooth="yes"/>
      <point x="403" y="516" smooth="yes"/>
      <point x="403" y="484" type="curve" smooth="yes"/>
      <point x="403" y="310" smooth="yes"/>
      <point x="312" y="104" smooth="yes"/>
      <point x="246" y="104" type="curve" smooth="yes"/>
      <point x="218" y="104" smooth="yes"/>
      <point x="206" y="129" smooth="yes"/>
      <point x="206" y="178" type="curve" smooth="yes"/>
      <point x="206" y="274" smooth="yes"/>
      <point x="248" y="392" smooth="yes"/>
      <point x="248" y="465" type="curve" smooth="yes" name="hr01"/>
      <point x="248" y="556"/>
      <point x="191" y="572"/>
      <point x="90" y="572" type="curve"/>
      <point x="100" y="535" smooth="yes"/>
      <point x="104" y="499" smooth="yes"/>
      <point x="104" y="462" type="curve" smooth="yes"/>
      <point x="104" y="370" smooth="yes"/>
      <point x="71" y="272" smooth="yes"/>
      <point x="71" y="166" type="curve" smooth="yes" name="hr02"/>
      <point x="71" y="74" smooth="yes"/>
      <point x="95" y="0" smooth="yes"/>
      <point x="186" y="0" type="curve" smooth="yes"/>
      <point x="258" y="0"/>
      <point x="358" y="113"/>
      <point x="400" y="269" type="curve"/>
      <point x="395" y="229" smooth="yes"/>
      <point x="389" y="190" smooth="yes"/>
      <point x="389" y="156" type="curve" smooth="yes"/>
      <point x="389" y="77"/>
      <point x="415" y="13"/>
      <point x="522" y="-21" type="curve"/>
      <point x="507" y="33" smooth="yes"/>
      <point x="503" y="93" smooth="yes"/>
      <point x="503" y="154" type="curve" smooth="yes"/>
      <point x="503" y="278" smooth="yes"/>
      <point x="541" y="439" smooth="yes"/>
      <point x="541" y="490" type="curve" smooth="yes" name="hr03"/>
      <point x="541" y="562" smooth="yes"/>
      <point x="498" y="579" smooth="yes"/>
      <point x="435" y="579" type="curve" smooth="yes"/>
      <point x="423" y="579"/>
      <point x="408" y="578"/>
    </contour>
  </outline>
</glyph>
<glyph name="bar" format="1">
  <advance width="456"/>
  <unicode hex="007C"/>
  <outline>
    <contour>
      <point x="154" y="-122" type="curve" smooth="yes"/>
      <point x="154" y="-166"/>
      <point x="198" y="-186"/>
      <point x="301" y="-186" type="curve"/>
      <point x="289" y="-93" smooth="yes"/>
      <point x="287" y="289" smooth="yes"/>
      <point x="287" y="383" type="curve" smooth="yes"/>
      <point x="287" y="582" smooth="yes"/>
      <point x="302" y="673" smooth="yes"/>
      <point x="302" y="803" type="curve" smooth="yes" name="hr01"/>
      <point x="302" y="847"/>
      <point x="258" y="867"/>
      <point x="155" y="867" type="curve"/>
      <point x="166" y="776" smooth="yes"/>
      <point x="169" y="477" smooth="yes"/>
      <point x="169" y="383" type="curve" smooth="yes"/>
      <point x="169" y="185" smooth="yes"/>
      <point x="154" y="9" smooth="yes"/>
    </contour>
  </outline>
</glyph>
<glyph name="exclamdown" format="1">
  <advance width="286"/>
  <unicode hex="00A1"/>
  <outline>
    <contour>
      <point x="26" y="-160" type="curve" smooth="yes"/>
      <point x="26" y="-230"/>
      <point x="104" y="-255"/>
      <point x="163" y="-255" type="curve"/>
      <point x="160" y="-239" smooth="yes"/>
      <point x="160" y="-222" smooth="yes"/>
      <point x="160" y="-205" type="curve" smooth="yes"/>
      <point x="160" y="-64" smooth="yes"/>
      <point x="210" y="54" smooth="yes"/>
      <point x="210" y="177" type="curve" smooth="yes" name="hr01"/>
      <point x="210" y="255"/>
      <point x="185" y="301"/>
      <point x="89" y="325" type="curve"/>
      <point x="95" y="311" smooth="yes"/>
      <point x="97" y="287" smooth="yes"/>
      <point x="97" y="256" type="curve" smooth="yes"/>
      <point x="97" y="75" smooth="yes"/>
      <point x="26" y="-79" smooth="yes"/>
    </contour>
    <contour>
      <point x="238" y="407" type="curve"/>
      <point x="246" y="436" smooth="yes"/>
      <point x="256" y="463" smooth="yes"/>
      <point x="256" y="492" type="curve" smooth="yes" name="hr03"/>
      <point x="256" y="542" smooth="yes"/>
      <point x="219" y="554" smooth="yes"/>
      <point x="182" y="554" type="curve" smooth="yes"/>
      <point x="158" y="554"/>
      <point x="132" y="550"/>
      <point x="111" y="544" type="curve"/>
      <point x="103" y="515" smooth="yes"/>
      <point x="93" y="488" smooth="yes"/>
      <point x="93" y="459" type="curve" smooth="yes"/>
      <point x="93" y="409" smooth="yes"/>
      <point x="130" y="397" smooth="yes"/>
      <point x="167" y="397" type="curve" smooth="yes"/>
      <point x="191" y="397"/>
      <point x="217" y="401"/>
    </contour>
  </outline>
</glyph>
<glyph name="cent" format="1">
  <advance width="620"/>
  <unicode hex="00A2"/>
  <outline>
    <contour>
      <point x="237" y="313" type="curve" smooth="yes" name="hr00"/>
      <point x="237" y="444" smooth="yes"/>
      <point x="289" y="602" smooth="yes"/>
      <point x="377" y="602" type="curve" smooth="yes"/>
      <point x="417" y="602" smooth="yes"/>
      <point x="430" y="575" smooth="yes"/>
      <point x="430" y="541" type="curve" smooth="yes"/>
      <point x="430" y="497"/>
      <point x="407" y="441"/>
      <point x="389" y="420" type="curve"/>
      <point x="406" y="413" smooth="yes"/>
      <point x="422" y="410" smooth="yes"/>
      <point x="437" y="410" type="curve" smooth="yes"/>
      <point x="505" y="410" smooth="yes"/>
      <point x="549" y="473" smooth="yes"/>
      <point x="549" y="536" type="curve" smooth="yes"/>
      <point x="549" y="590"/>
      <point x="516" y="644"/>
      <point x="440" y="659" type="curve"/>
      <point x="448" y="697" smooth="yes"/>
      <point x="453" y="728" smooth="yes"/>
      <point x="453" y="748" type="curve" smooth="yes"/>
      <point x="453" y="806"/>
      <point x="411" y="832"/>
      <point x="379" y="832" type="curve"/>
      <point x="375" y="786"/>
      <point x="363" y="726"/>
      <point x="348" y="660" type="curve"/>
      <point x="185" y="635" smooth="yes"/>
      <point x="94" y="478" smooth="yes"/>
      <point x="94" y="308" type="curve" smooth="yes"/>
      <point x="94" y="169"/>
      <point x="163" y="96"/>
      <point x="245" y="77" type="curve"/>
      <point x="236" y="36" smooth="yes"/>
      <point x="231" y="1" smooth="yes"/>
      <point x="231" y="-21" type="curve" smooth="yes"/>
      <point x="231" y="-98"/>
      <point x="323" y="-98"/>
      <point x="332" y="-98" type="curve"/>
      <point x="332" y="-46"/>
      <point x="340" y="15"/>
      <point x="352" y="79" type="curve"/>
      <point x="409" y="93"/>
      <point x="471" y="129"/>
      <point x="516" y="207" type="curve"/>
      <point x="516" y="225"/>
      <point x="502" y="239"/>
      <point x="480" y="244" type="curve"/>
      <point x="440" y="181" smooth="yes"/>
      <point x="384" y="146" smooth="yes"/>
      <point x="335" y="146" type="curve" smooth="yes"/>
      <point x="272" y="146" smooth="yes"/>
      <point x="237" y="203" smooth="yes"/>
    </contour>
  </outline>
</glyph>
<glyph name="yen" format="1">
  <advance width="620"/>
  <unicode hex="00A5"/>
  <outline>
    <contour>
      <point x="302" y="378" type="line" smooth="yes" name="hr00"/>
      <point x="240" y="603" smooth="yes"/>
      <point x="225" y="719" smooth="yes"/>
      <point x="147" y="719" type="curve" smooth="yes"/>
      <point x="122" y="719"/>
      <point x="86" y="709"/>
      <point x="60" y="693" type="curve"/>
      <point x="110" y="615"/>
      <point x="155" y="520"/>
      <point x="192" y="407" type="curve"/>
      <point x="170" y="405" smooth="yes"/>
      <point x="147" y="404" smooth="yes"/>
      <point x="126" y="404" type="curve" smooth="yes"/>
      <point x="114" y="404"/>
      <point x="102" y="405"/>
      <point x="90" y="405" type="curve"/>
      <point x="95" y="345" smooth="yes"/>
      <point x="119" y="321" smooth="yes"/>
      <point x="163" y="321" type="curve" smooth="yes"/>
      <point x="176" y="321"/>
      <point x="195" y="323"/>
      <point x="217" y="325" type="curve"/>
      <point x="222" y="309"/>
      <point x="226" y="292"/>
      <point x="231" y="275" type="curve"/>
      <point x="194" y="268" smooth="yes"/>
      <point x="157" y="264" smooth="yes"/>
      <point x="120" y="264" type="curve" smooth="yes"/>
      <point x="108" y="264"/>
      <point x="96" y="265"/>
      <point x="84" y="265" type="curve"/>
      <point x="89" y="205" smooth="yes"/>
      <point x="113" y="181" smooth="yes"/>
      <point x="157" y="181" type="curve" smooth="yes"/>
      <point x="172" y="181"/>
      <point x="194" y="184"/>
      <point x="220" y="188" type="curve"/>
      <point x="216" y="152" smooth="yes"/>
      <point x="214" y="120" smooth="yes"/>
      <point x="214" y="97" type="curve" smooth="yes"/>
      <point x="214" y="31"/>
      <point x="227" y="-10"/>
      <point x="342" y="-15" type="curve"/>
      <point x="340" y="6" smooth="yes"/>
      <point x="339" y="17" smooth="yes"/>
      <point x="339" y="41" type="curve" smooth="yes"/>
      <point x="339" y="86"/>
      <point x="345" y="146"/>
      <point x="354" y="212" type="curve"/>
      <point x="392" y="218" smooth="yes"/>
      <point x="429" y="222" smooth="yes"/>
      <point x="462" y="222" type="curve" smooth="yes"/>
      <point x="493" y="222"/>
      <point x="517" y="219"/>
      <point x="528" y="213" type="curve"/>
      <point x="513" y="284" smooth="yes"/>
      <point x="483" y="302" smooth="yes"/>
      <point x="430" y="302" type="curve" smooth="yes"/>
      <point x="412" y="302"/>
      <point x="393" y="301"/>
      <point x="374" y="298" type="curve"/>
      <point x="411" y="350" type="line"/>
      <point x="435" y="352" smooth="yes"/>
      <point x="459" y="354" smooth="yes"/>
      <point x="480" y="354" type="curve" smooth="yes"/>
      <point x="511" y="354"/>
      <point x="535" y="351"/>
      <point x="546" y="345" type="curve"/>
      <point x="533" y="405"/>
      <point x="510" y="427"/>
      <point x="471" y="432" type="curve"/>
      <point x="532" y="517" smooth="yes"/>
      <point x="570" y="575" smooth="yes"/>
      <point x="570" y="627" type="curve" smooth="yes"/>
      <point x="570" y="656"/>
      <point x="557" y="701"/>
      <point x="498" y="735" type="curve"/>
      <point x="483" y="643"/>
      <point x="453" y="549"/>
      <point x="312" y="342" type="curve"/>
    </contour>
  </outline>
</glyph>
<glyph name="brokenbar" format="1">
  <advance width="456"/>
  <unicode hex="00A6"/>
  <outline>
    <contour>
      <point x="287" y="430" type="curve"/>
      <point x="287" y="538" smooth="yes"/>
      <point x="302" y="726" smooth="yes"/>
      <point x="302" y="803" type="curve" smooth="yes" name="hr01"/>
      <point x="302" y="847"/>
      <point x="258" y="867"/>
      <point x="155" y="867" type="curve"/>
      <point x="166" y="776" smooth="yes"/>
      <point x="169" y="641" smooth="yes"/>
      <point x="169" y="547" type="curve" smooth="yes"/>
      <point x="169" y="484"/>
      <point x="184" y="430"/>
    </contour>
    <contour>
      <point x="169" y="251" type="curve"/>
      <point x="169" y="143" smooth="yes"/>
      <point x="154" y="-45" smooth="yes"/>
      <point x="154" y="-122" type="curve" smooth="yes" name="hr03"/>
      <point x="154" y="-166"/>
      <point x="198" y="-186"/>
      <point x="301" y="-186" type="curve"/>
      <point x="290" y="-95" smooth="yes"/>
      <point x="287" y="40" smooth="yes"/>
      <point x="287" y="134" type="curve" smooth="yes"/>
      <point x="287" y="197"/>
      <point x="272" y="251"/>
    </contour>
  </outline>
</glyph>
<glyph name="logicalnot" format="1">
  <advance width="620"/>
  <unicode hex="00AC"/>
  <outline>
    <contour>
      <point x="465" y="424" type="curve" smooth="yes" name="hr00"/>
      <point x="367" y="424" smooth="yes"/>
      <point x="293" y="410" smooth="yes"/>
      <point x="213" y="410" type="curve" smooth="yes"/>
      <point x="156" y="410"/>
      <point x="105" y="413"/>
      <point x="46" y="421" type="curve"/>
      <point x="46" y="413" smooth="yes"/>
      <point x="45" y="406" smooth="yes"/>
      <point x="45" y="398" type="curve" smooth="yes"/>
      <point x="45" y="335" smooth="yes"/>
      <point x="59" y="289" smooth="yes"/>
      <point x="155" y="289" type="curve" smooth="yes"/>
      <point x="250" y="289" smooth="yes"/>
      <point x="343" y="306" smooth="yes"/>
      <point x="433" y="306" type="curve" smooth="yes"/>
      <point x="447" y="306"/>
      <point x="460" y="306"/>
      <point x="474" y="305" type="curve"/>
      <point x="462" y="260" smooth="yes"/>
      <point x="451" y="214" smooth="yes"/>
      <point x="451" y="189" type="curve" smooth="yes"/>
      <point x="451" y="135" smooth="yes"/>
      <point x="482" y="121" smooth="yes"/>
      <point x="520" y="121" type="curve" smooth="yes"/>
      <point x="535" y="121"/>
      <point x="551" y="123"/>
      <point x="567" y="126" type="curve"/>
      <point x="567" y="201" smooth="yes"/>
      <point x="575" y="266" smooth="yes"/>
      <point x="575" y="315" type="curve" smooth="yes"/>
      <point x="575" y="378" smooth="yes"/>
      <point x="561" y="424" smooth="yes"/>
    </contour>
  </outline>
</glyph>
<glyph name="mu" format="1">
  <advance width="606"/>
  <unicode hex="00B5"/>
  <outline>
    <contour>
      <point x="393" y="577" type="curve"/>
      <point x="398" y="536" smooth="yes"/>
      <point x="399" y="497" smooth="yes"/>
      <point x="399" y="460" type="curve" smooth="yes"/>
      <point x="399" y="255" smooth="yes"/>
      <point x="299" y="104" smooth="yes"/>
      <point x="246" y="104" type="curve" smooth="yes"/>
      <point x="218" y="104" smooth="yes"/>
      <point x="206" y="129" smooth="yes"/>
      <point x="206" y="178" type="curve" smooth="yes"/>
      <point x="206" y="274" smooth="yes"/>
      <point x="248" y="392" smooth="yes"/>
      <point x="248" y="465" type="curve" smooth="yes" name="hr01"/>
      <point x="248" y="556"/>
      <point x="191" y="572"/>
      <point x="90" y="572" type="curve"/>
      <point x="100" y="535" smooth="yes"/>
      <point x="104" y="499" smooth="yes"/>
      <point x="104" y="462" type="curve" smooth="yes"/>
      <point x="104" y="226" smooth="yes"/>
      <point x="22" y="-27" smooth="yes"/>
      <point x="22" y="-159" type="curve" smooth="yes" name="hr02"/>
      <point x="22" y="-237"/>
      <point x="47" y="-282"/>
      <point x="143" y="-307" type="curve"/>
      <point x="137" y="-293" smooth="yes"/>
      <point x="135" y="-269" smooth="yes"/>
      <point x="135" y="-237" type="curve" smooth="yes"/>
      <point x="135" y="-149"/>
      <point x="148" y="-69"/>
      <point x="161" y="1" type="curve"/>
      <point x="282" y="1"/>
      <point x="358" y="113"/>
      <point x="400" y="269" type="curve"/>
      <point x="395" y="229" smooth="yes"/>
      <point x="389" y="190" smooth="yes"/>
      <point x="389" y="156" type="curve" smooth="yes"/>
      <point x="389" y="77"/>
      <point x="415" y="13"/>
      <point x="522" y="-21" type="curve"/>
      <point x="507" y="33" smooth="yes"/>
      <point x="503" y="93" smooth="yes"/>
      <point x="503" y="154" type="curve" smooth="yes"/>
      <point x="503" y="278" smooth="yes"/>
      <point x="541" y="439" smooth="yes"/>
      <point x="541" y="490" type="curve" smooth="yes" name="hr03"/>
      <point x="541" y="562" smooth="yes"/>
      <point x="498" y="579" smooth="yes"/>
      <point x="435" y="579" type="curve" smooth="yes"/>
      <point x="423" y="579"/>
      <point x="408" y="578"/>
    </contour>
  </outline>
</glyph>
<glyph name="multiply" format="1">
  <advance width="620"/>
  <unicode hex="00D7"/>
  <outline>
    <contour>
      <point x="492" y="121" type="curve" name="hr00"/>
      <point x="519" y="153" smooth="yes"/>
      <point x="533" y="172" smooth="yes"/>
      <point x="533" y="202" type="curve" smooth="yes"/>
      <point x="533" y="250" smooth="yes"/>
      <point x="484" y="289" smooth="yes"/>
      <point x="401" y="355" type="curve" smooth="yes"/>
      <point x="390" y="364" type="line"/>
      <point x="440" y="425"/>
      <point x="484" y="482"/>
      <point x="543" y="538" type="curve"/>
      <point x="511" y="565" smooth="yes"/>
      <point x="492" y="579" smooth="yes"/>
      <point x="462" y="579" type="curve" smooth="yes"/>
      <point x="414" y="579" smooth="yes"/>
      <point x="375" y="530" smooth="yes"/>
      <point x="309" y="447" type="curve" smooth="yes"/>
      <point x="300" y="436" type="line"/>
      <point x="238" y="485"/>
      <point x="181" y="530"/>
      <point x="126" y="588" type="curve"/>
      <point x="99" y="556" smooth="yes"/>
      <point x="85" y="537" smooth="yes"/>
      <point x="85" y="507" type="curve" smooth="yes"/>
      <point x="85" y="459" smooth="yes"/>
      <point x="141" y="415" smooth="yes"/>
      <point x="217" y="354" type="curve" smooth="yes"/>
      <point x="227" y="345" type="line"/>
      <point x="178" y="284"/>
      <point x="134" y="227"/>
      <point x="76" y="172" type="curve"/>
      <point x="108" y="145" smooth="yes"/>
      <point x="127" y="131" smooth="yes"/>
      <point x="157" y="131" type="curve" smooth="yes"/>
      <point x="205" y="131" smooth="yes"/>
      <point x="249" y="187" smooth="yes"/>
      <point x="310" y="263" type="curve" smooth="yes"/>
      <point x="318" y="273" type="line"/>
      <point x="379" y="225"/>
      <point x="436" y="179"/>
    </contour>
  </outline>
</glyph>
<glyph name="divide" format="1">
  <advance width="620"/>
  <unicode hex="00F7"/>
  <outline>
    <contour>
      <point x="367" y="489" type="curve" name="hr00"/>
      <point x="374" y="515" smooth="yes"/>
      <point x="383" y="539" smooth="yes"/>
      <point x="383" y="565" type="curve" smooth="yes"/>
      <point x="383" y="610" smooth="yes"/>
      <point x="350" y="621" smooth="yes"/>
      <point x="316" y="621" type="curve" smooth="yes"/>
      <point x="295" y="621"/>
      <point x="271" y="618"/>
      <point x="252" y="612" type="curve"/>
      <point x="245" y="586" smooth="yes"/>
      <point x="236" y="562" smooth="yes"/>
      <point x="236" y="536" type="curve" smooth="yes"/>
      <point x="236" y="491" smooth="yes"/>
      <point x="269" y="480" smooth="yes"/>
      <point x="303" y="480" type="curve" smooth="yes"/>
      <point x="324" y="480"/>
      <point x="348" y="483"/>
    </contour>
    <contour>
      <point x="367" y="100" type="curve"/>
      <point x="374" y="126" smooth="yes"/>
      <point x="383" y="150" smooth="yes"/>
      <point x="383" y="176" type="curve" smooth="yes"/>
      <point x="383" y="221" smooth="yes"/>
      <point x="350" y="232" smooth="yes"/>
      <point x="316" y="232" type="curve" smooth="yes"/>
      <point x="295" y="232"/>
      <point x="271" y="229"/>
      <point x="252" y="223" type="curve"/>
      <point x="245" y="197" smooth="yes"/>
      <point x="236" y="173" smooth="yes"/>
      <point x="236" y="147" type="curve" smooth="yes"/>
      <point x="236" y="102" smooth="yes"/>
      <point x="269" y="91" smooth="yes"/>
      <point x="303" y="91" type="curve" smooth="yes"/>
      <point x="324" y="91"/>
      <point x="348" y="94"/>
    </contour>
    <component  base="minus"/>
  </outline>
</glyph>
<glyph name="oe" format="1">
  <advance width="896"/>
  <unicode hex="0153"/>
  <outline>
    <contour>
      <point x="276" y="591" type="curve"/>
      <point x="138" y="557" smooth="yes"/>
      <point x="50" y="413" smooth="yes"/>
      <point x="50" y="247" type="curve" smooth="yes"/>
      <point x="50" y="65" smooth="yes"/>
      <point x="162" y="-15" smooth="yes"/>
      <point x="266" y="-15" type="curve" smooth="yes"/>
      <point x="347" y="-15"/>
      <point x="409" y="20"/>
      <point x="453" y="73" type="curve"/>
      <point x="484" y="14" smooth="yes"/>
      <point x="533" y="-15" smooth="yes"/>
      <point x="593" y="-15" type="curve" smooth="yes"/>
      <point x="689" y="-15"/>
      <point x="771" y="33"/>
      <point x="826" y="120" type="curve"/>
      <point x="826" y="138"/>
      <point x="813" y="151"/>
      <point x="790" y="157" type="curve"/>
      <point x="747" y="93" smooth="yes"/>
      <point x="694" y="59" smooth="yes"/>
      <point x="637" y="59" type="curve" smooth="yes"/>
      <point x="576" y="59" smooth="yes"/>
      <point x="542" y="118" smooth="yes"/>
      <point x="542" y="226" type="curve" smooth="yes"/>
      <point x="542" y="241"/>
      <point x="542" y="250"/>
      <point x="543" y="257" type="curve"/>
      <point x="572" y="250" smooth="yes"/>
      <point x="605" y="246" smooth="yes"/>
      <point x="637" y="246" type="curve" smooth="yes"/>
      <point x="751" y="246" smooth="yes"/>
      <point x="863" y="298" smooth="yes"/>
      <point x="863" y="432" type="curve" smooth="yes"/>
      <point x="863" y="516" smooth="yes"/>
      <point x="810" y="577" smooth="yes"/>
      <point x="703" y="577" type="curve" smooth="yes" name="hr01"/>
      <point x="625" y="577"/>
      <point x="563" y="546"/>
      <point x="518" y="498" type="curve"/>
      <point x="496" y="547" smooth="yes"/>
      <point x="460" y="574" smooth="yes"/>
      <point x="413" y="574" type="curve" smooth="yes"/>
      <point x="343" y="574"/>
      <point x="233" y="530"/>
      <point x="182" y="360" type="curve"/>
      <point x="194" y="471"/>
      <point x="250" y="538"/>
      <point x="306" y="571" type="curve" name="hr02"/>
      <point x="304" y="581"/>
      <point x="291" y="591"/>
    </contour>
    <contour>
      <point x="361" y="501" type="curve" smooth="yes"/>
      <point x="406" y="501" smooth="yes"/>
      <point x="439" y="459" smooth="yes"/>
      <point x="439" y="341" type="curve" smooth="yes"/>
      <point x="439" y="207" smooth="yes"/>
      <point x="383" y="57" smooth="yes"/>
      <point x="288" y="57" type="curve" smooth="yes"/>
      <point x="220" y="57" smooth="yes"/>
      <point x="194" y="134" smooth="yes"/>
      <point x="194" y="228" type="curve" smooth="yes"/>
      <point x="194" y="354" smooth="yes"/>
      <point x="272" y="501" smooth="yes"/>
    </contour>
    <contour>
      <point x="679" y="515" type="curve" smooth="yes" name="hr03"/>
      <point x="716" y="515" smooth="yes"/>
      <point x="732" y="483" smooth="yes"/>
      <point x="732" y="452" type="curve" smooth="yes"/>
      <point x="732" y="379" smooth="yes"/>
      <point x="687" y="299" smooth="yes"/>
      <point x="562" y="299" type="curve" smooth="yes"/>
      <point x="547" y="299" type="line"/>
      <point x="561" y="409" smooth="yes"/>
      <point x="607" y="515" smooth="yes"/>
    </contour>
  </outline>
</glyph>
<glyph name="florin" format="1">
  <advance width="620"/>
  <unicode hex="0192"/>
  <outline>
    <contour>
      <point x="451" y="641" type="curve" smooth="yes" name="hr00"/>
      <point x="483" y="641" smooth="yes"/>
      <point x="497" y="614" smooth="yes"/>
      <point x="497" y="588" type="curve" smooth="yes"/>
      <point x="497" y="554"/>
      <point x="474" y="518"/>
      <point x="447" y="500" type="curve"/>
      <point x="461" y="495" smooth="yes"/>
      <point x="476" y="493" smooth="yes"/>
      <point x="488" y="493" type="curve" smooth="yes"/>
      <point x="564" y="493" smooth="yes"/>
      <point x="603" y="550" smooth="yes"/>
      <point x="603" y="601" type="curve" smooth="yes"/>
      <point x="603" y="664" smooth="yes"/>
      <point x="563" y="719" smooth="yes"/>
      <point x="459" y="719" type="curve" smooth="yes"/>
      <point x="307" y="719"/>
      <point x="255" y="554"/>
      <point x="229" y="366" type="curve"/>
      <point x="192" y="360" smooth="yes"/>
      <point x="155" y="356" smooth="yes"/>
      <point x="118" y="356" type="curve" smooth="yes"/>
      <point x="106" y="356"/>
      <point x="94" y="357"/>
      <point x="82" y="357" type="curve"/>
      <point x="87" y="297" smooth="yes"/>
      <point x="111" y="273" smooth="yes"/>
      <point x="155" y="273" type="curve" smooth="yes"/>
      <point x="171" y="273"/>
      <point x="193" y="276"/>
      <point x="219" y="280" type="curve"/>
      <point x="196" y="52" smooth="yes"/>
      <point x="195" y="-180" smooth="yes"/>
      <point x="95" y="-180" type="curve" smooth="yes"/>
      <point x="63" y="-180" smooth="yes"/>
      <point x="46" y="-153" smooth="yes"/>
      <point x="46" y="-127" type="curve" smooth="yes"/>
      <point x="46" y="-90"/>
      <point x="67" y="-56"/>
      <point x="92" y="-39" type="curve"/>
      <point x="77" y="-34" smooth="yes"/>
      <point x="62" y="-32" smooth="yes"/>
      <point x="50" y="-32" type="curve" smooth="yes"/>
      <point x="-21" y="-32" smooth="yes"/>
      <point x="-57" y="-85" smooth="yes"/>
      <point x="-57" y="-140" type="curve" smooth="yes"/>
      <point x="-57" y="-203" smooth="yes"/>
      <point x="-12" y="-258" smooth="yes"/>
      <point x="90" y="-258" type="curve" smooth="yes"/>
      <point x="301" y="-258"/>
      <point x="322" y="47"/>
      <point x="341" y="302" type="curve"/>
      <point x="382" y="308" smooth="yes"/>
      <point x="424" y="314" smooth="yes"/>
      <point x="460" y="314" type="curve" smooth="yes"/>
      <point x="491" y="314"/>
      <point x="515" y="311"/>
      <point x="526" y="305" type="curve"/>
      <point x="511" y="376" smooth="yes"/>
      <point x="481" y="394" smooth="yes"/>
      <point x="428" y="394" type="curve" smooth="yes"/>
      <point x="402" y="394"/>
      <point x="376" y="391"/>
      <point x="348" y="387" type="curve"/>
      <point x="361" y="530" smooth="yes"/>
      <point x="382" y="641" smooth="yes"/>
    </contour>
  </outline>
</glyph>
<glyph name="ogonek" format="1">
  <advance width="560"/>
  <unicode hex="02DB"/>
  <outline>
    <contour>
      <point x="390" y="-201" type="curve" name="hr00"/>
      <point x="359" y="-231" smooth="yes"/>
      <point x="311" y="-242" smooth="yes"/>
      <point x="284" y="-242" type="curve" smooth="yes"/>
      <point x="233" y="-242" smooth="yes"/>
      <point x="213" y="-200" smooth="yes"/>
      <point x="213" y="-168" type="curve" smooth="yes"/>
      <point x="213" y="-94"/>
      <point x="277" y="-17"/>
      <point x="340" y="33" type="curve"/>
      <point x="282" y="33" type="line"/>
      <point x="161" y="-26" smooth="yes"/>
      <point x="115" y="-118" smooth="yes"/>
      <point x="115" y="-192" type="curve" smooth="yes"/>
      <point x="115" y="-269" smooth="yes"/>
      <point x="169" y="-321" smooth="yes"/>
      <point x="251" y="-321" type="curve" smooth="yes"/>
      <point x="307" y="-321"/>
      <point x="361" y="-297"/>
      <point x="421" y="-241" type="curve"/>
      <point x="421" y="-223"/>
      <point x="412" y="-206"/>
    </contour>
  </outline>
</glyph>
<glyph name="quoteleft" format="1">
  <advance width="153"/>
  <unicode hex="2018"/>
  <outline>
    <contour>
      <point x="149" y="571" type="curve" name="hr00"/>
      <point x="140" y="596" smooth="yes"/>
      <point x="134" y="621" smooth="yes"/>
      <point x="134" y="646" type="curve" smooth="yes"/>
      <point x="134" y="704"/>
      <point x="161" y="762"/>
      <point x="213" y="808" type="curve"/>
      <point x="184" y="853" type="line"/>
      <point x="62" y="790" smooth="yes"/>
      <point x="0" y="707" smooth="yes"/>
      <point x="0" y="622" type="curve" smooth="yes"/>
      <point x="0" y="572" smooth="yes"/>
      <point x="37" y="560" smooth="yes"/>
      <point x="74" y="560" type="curve" smooth="yes"/>
      <point x="98" y="560"/>
      <point x="128" y="565"/>
    </contour>
  </outline>
</glyph>
<glyph name="quotedblleft" format="1">
  <advance width="355"/>
  <unicode hex="201C"/>
  <outline>
    <contour>
      <point x="149" y="571" type="curve" name="hr00"/>
      <point x="140" y="596" smooth="yes"/>
      <point x="134" y="621" smooth="yes"/>
      <point x="134" y="646" type="curve" smooth="yes"/>
      <point x="134" y="704"/>
      <point x="161" y="762"/>
      <point x="213" y="808" type="curve"/>
      <point x="184" y="853" type="line"/>
      <point x="62" y="790" smooth="yes"/>
      <point x="0" y="707" smooth="yes"/>
      <point x="0" y="622" type="curve" smooth="yes"/>
      <point x="0" y="572" smooth="yes"/>
      <point x="37" y="560" smooth="yes"/>
      <point x="74" y="560" type="curve" smooth="yes"/>
      <point x="98" y="560"/>
      <point x="128" y="565"/>
    </contour>
    <contour>
      <point x="351" y="595" type="curve"/>
      <point x="342" y="620" smooth="yes"/>
      <point x="336" y="645" smooth="yes"/>
      <point x="336" y="670" type="curve" smooth="yes"/>
      <point x="336" y="728"/>
      <point x="363" y="786"/>
      <point x="415" y="832" type="curve"/>
      <point x="386" y="877" type="line"/>
      <point x="264" y="814" smooth="yes"/>
      <point x="202" y="731" smooth="yes"/>
      <point x="202" y="646" type="curve" smooth="yes"/>
      <point x="202" y="596" smooth="yes"/>
      <point x="239" y="584" smooth="yes"/>
      <point x="276" y="584" type="curve" smooth="yes"/>
      <point x="300" y="584"/>
      <point x="330" y="589"/>
    </contour>
  </outline>
</glyph>
<glyph name="quotedblright" format="1">
  <advance width="450"/>
  <unicode hex="201D"/>
  <outline>
    <contour>
      <point x="301" y="842" type="curve" name="hr00"/>
      <point x="310" y="817" smooth="yes"/>
      <point x="316" y="792" smooth="yes"/>
      <point x="316" y="767" type="curve" smooth="yes"/>
      <point x="316" y="709"/>
      <point x="289" y="651"/>
      <point x="237" y="605" type="curve"/>
      <point x="266" y="560" type="line"/>
      <point x="388" y="623" smooth="yes"/>
      <point x="450" y="706" smooth="yes"/>
      <point x="450" y="791" type="curve" smooth="yes"/>
      <point x="450" y="841" smooth="yes"/>
      <point x="413" y="853" smooth="yes"/>
      <point x="376" y="853" type="curve" smooth="yes"/>
      <point x="352" y="853"/>
      <point x="322" y="848"/>
    </contour>
    <contour>
      <point x="99" y="818" type="curve"/>
      <point x="108" y="793" smooth="yes"/>
      <point x="114" y="768" smooth="yes"/>
      <point x="114" y="743" type="curve" smooth="yes"/>
      <point x="114" y="685"/>
      <point x="87" y="627"/>
      <point x="35" y="581" type="curve"/>
      <point x="64" y="536" type="line"/>
      <point x="186" y="599" smooth="yes"/>
      <point x="248" y="682" smooth="yes"/>
      <point x="248" y="767" type="curve" smooth="yes"/>
      <point x="248" y="817" smooth="yes"/>
      <point x="211" y="829" smooth="yes"/>
      <point x="174" y="829" type="curve" smooth="yes"/>
      <point x="150" y="829"/>
      <point x="120" y="824"/>
    </contour>
  </outline>
</glyph>
<glyph name="fraction" format="1">
  <advance width="343"/>
  <unicode hex="2044"/>
  <outline>
    <contour>
      <point x="264" y="768" type="curve" name="hr00"/>
      <point x="228" y="557" smooth="yes"/>
      <point x="15" y="122" smooth="yes"/>
      <point x="15" y="14" type="curve" smooth="yes"/>
      <point x="15" y="-72"/>
      <point x="111" y="-82"/>
      <point x="111" y="-82" type="curve"/>
      <point x="143" y="158" smooth="yes"/>
      <point x="331" y="569" smooth="yes"/>
      <point x="331" y="665" type="curve" smooth="yes"/>
      <point x="331" y="735"/>
      <point x="264" y="768"/>
    </contour>
  </outline>
</glyph>
<glyph name="product" format="1">
  <advance width="765"/>
  <unicode hex="220F"/>
  <outline>
    <contour>
      <point x="659" y="522" type="curve" smooth="yes"/>
      <point x="659" y="558"/>
      <point x="656" y="589"/>
      <point x="641" y="611" type="curve"/>
      <point x="681" y="609"/>
      <point x="721" y="606"/>
      <point x="764" y="601" type="curve"/>
      <point x="764" y="609" smooth="yes"/>
      <point x="765" y="616" smooth="yes"/>
      <point x="765" y="624" type="curve" smooth="yes"/>
      <point x="765" y="687" smooth="yes"/>
      <point x="749" y="733" smooth="yes"/>
      <point x="637" y="733" type="curve" smooth="yes"/>
      <point x="521" y="733" smooth="yes"/>
      <point x="340" y="719" smooth="yes"/>
      <point x="247" y="719" type="curve" smooth="yes"/>
      <point x="180" y="719"/>
      <point x="120" y="722"/>
      <point x="51" y="730" type="curve"/>
      <point x="51" y="722" smooth="yes"/>
      <point x="50" y="715" smooth="yes"/>
      <point x="50" y="707" type="curve" smooth="yes"/>
      <point x="50" y="646"/>
      <point x="65" y="601"/>
      <point x="167" y="598" type="curve"/>
      <point x="168" y="583" smooth="yes"/>
      <point x="168" y="568" smooth="yes"/>
      <point x="168" y="551" type="curve" smooth="yes"/>
      <point x="168" y="348" smooth="yes"/>
      <point x="101" y="-3" smooth="yes"/>
      <point x="101" y="-112" type="curve" smooth="yes" name="hr01"/>
      <point x="101" y="-190"/>
      <point x="112" y="-238"/>
      <point x="238" y="-244" type="curve"/>
      <point x="236" y="-215" smooth="yes"/>
      <point x="234" y="-185" smooth="yes"/>
      <point x="234" y="-154" type="curve" smooth="yes"/>
      <point x="234" y="107" smooth="yes"/>
      <point x="292" y="370" smooth="yes"/>
      <point x="292" y="493" type="curve" smooth="yes" name="hr02"/>
      <point x="292" y="537"/>
      <point x="285" y="572"/>
      <point x="267" y="599" type="curve"/>
      <point x="354" y="602"/>
      <point x="453" y="609"/>
      <point x="525" y="611" type="curve"/>
      <point x="526" y="596" smooth="yes"/>
      <point x="526" y="580" smooth="yes"/>
      <point x="526" y="564" type="curve" smooth="yes"/>
      <point x="526" y="303" smooth="yes"/>
      <point x="468" y="40" smooth="yes"/>
      <point x="468" y="-83" type="curve" smooth="yes" name="hr03"/>
      <point x="468" y="-177"/>
      <point x="500" y="-230"/>
      <point x="604" y="-258" type="curve"/>
      <point x="596" y="-238" smooth="yes"/>
      <point x="592" y="-196" smooth="yes"/>
      <point x="592" y="-141" type="curve" smooth="yes"/>
      <point x="592" y="62" smooth="yes"/>
      <point x="659" y="413" smooth="yes"/>
    </contour>
  </outline>
</glyph>
<glyph name="minus" format="1">
  <advance width="620"/>
  <unicode hex="2212"/>
  <outline>
    <contour>
      <point x="465" y="424" type="curve" smooth="yes" name="hr00"/>
      <point x="367" y="424" smooth="yes"/>
      <point x="293" y="410" smooth="yes"/>
      <point x="213" y="410" type="curve" smooth="yes"/>
      <point x="156" y="410"/>
      <point x="105" y="413"/>
      <point x="46" y="421" type="curve"/>
      <point x="46" y="413" smooth="yes"/>
      <point x="45" y="406" smooth="yes"/>
      <point x="45" y="398" type="curve" smooth="yes"/>
      <point x="45" y="335" smooth="yes"/>
      <point x="59" y="289" smooth="yes"/>
      <point x="155" y="289" type="curve" smooth="yes"/>
      <point x="253" y="289" smooth="yes"/>
      <point x="327" y="303" smooth="yes"/>
      <point x="407" y="303" type="curve" smooth="yes"/>
      <point x="464" y="303"/>
      <point x="515" y="300"/>
      <point x="574" y="292" type="curve"/>
      <point x="574" y="300" smooth="yes"/>
      <point x="575" y="307" smooth="yes"/>
      <point x="575" y="315" type="curve" smooth="yes"/>
      <point x="575" y="378" smooth="yes"/>
      <point x="561" y="424" smooth="yes"/>
    </contour>
  </outline>
</glyph>
<glyph name="lozenge" format="1">
  <advance width="517"/>
  <unicode hex="25CA"/>
  <outline>
    <contour>
      <point x="381" y="329" type="line" name="hr00"/>
      <point x="268" y="71" type="line"/>
      <point x="165" y="331" type="line"/>
      <point x="278" y="589" type="line"/>
    </contour>
    <contour>
      <point x="487" y="329" type="line"/>
      <point x="376" y="612" type="line" smooth="yes"/>
      <point x="350" y="679" smooth="yes"/>
      <point x="336" y="706" smooth="yes"/>
      <point x="276" y="706" type="curve" smooth="yes"/>
      <point x="225" y="706" type="line"/>
      <point x="59" y="331" type="line"/>
      <point x="170" y="48" type="line" smooth="yes"/>
      <point x="196" y="-19" smooth="yes"/>
      <point x="210" y="-46" smooth="yes"/>
      <point x="270" y="-46" type="curve" smooth="yes"/>
      <point x="321" y="-46" type="line"/>
    </contour>
  </outline>
</glyph>
<glyph name="acute.case" format="1">
  <advance width="372"/>
  <outline>
    <contour>
      <point x="88" y="881" type="curve" name="hr00"/>
      <point x="91" y="866"/>
      <point x="109" y="852"/>
      <point x="130" y="848" type="curve"/>
      <point x="174" y="897"/>
      <point x="261" y="965"/>
      <point x="352" y="989" type="curve"/>
      <point x="349" y="1056"/>
      <point x="308" y="1084"/>
      <point x="289" y="1096" type="curve"/>
      <point x="210" y="1064"/>
      <point x="121" y="956"/>
    </contour>
  </outline>
</glyph>
<glyph name="circumflex.case" format="1">
  <advance width="450"/>
  <outline>
    <contour>
      <point x="370" y="866" type="curve" smooth="yes" name="hr00"/>
      <point x="392" y="866"/>
      <point x="412" y="868"/>
      <point x="442" y="877" type="curve"/>
      <point x="338" y="993"/>
      <point x="381" y="1102"/>
      <point x="278" y="1102" type="curve"/>
      <point x="235" y="1052"/>
      <point x="210" y="1012"/>
      <point x="90" y="938" type="curve"/>
      <point x="91" y="889"/>
      <point x="122" y="862"/>
      <point x="141" y="849" type="curve"/>
      <point x="211" y="889"/>
      <point x="245" y="930"/>
      <point x="275" y="976" type="curve"/>
      <point x="296" y="891" smooth="yes"/>
      <point x="309" y="866" smooth="yes"/>
    </contour>
  </outline>
</glyph>
<glyph name="dieresis.case" format="1">
  <advance width="450"/>
  <outline>
    <contour>
      <point x="203" y="900" type="curve" name="hr00"/>
      <point x="211" y="924" smooth="yes"/>
      <point x="217" y="947" smooth="yes"/>
      <point x="217" y="971" type="curve" smooth="yes"/>
      <point x="217" y="1032" smooth="yes"/>
      <point x="170" y="1043" smooth="yes"/>
      <point x="123" y="1043" type="curve" smooth="yes"/>
      <point x="108" y="1043"/>
      <point x="91" y="1041"/>
      <point x="79" y="1039" type="curve"/>
      <point x="71" y="1015" smooth="yes"/>
      <point x="65" y="992" smooth="yes"/>
      <point x="65" y="968" type="curve" smooth="yes"/>
      <point x="65" y="907" smooth="yes"/>
      <point x="112" y="896" smooth="yes"/>
      <point x="159" y="896" type="curve" smooth="yes"/>
      <point x="174" y="896"/>
      <point x="191" y="898"/>
    </contour>
    <contour>
      <point x="428" y="900" type="curve"/>
      <point x="436" y="924" smooth="yes"/>
      <point x="442" y="947" smooth="yes"/>
      <point x="442" y="971" type="curve" smooth="yes"/>
      <point x="442" y="1032" smooth="yes"/>
      <point x="395" y="1043" smooth="yes"/>
      <point x="348" y="1043" type="curve" smooth="yes"/>
      <point x="333" y="1043"/>
      <point x="316" y="1041"/>
      <point x="304" y="1039" type="curve"/>
      <point x="296" y="1015" smooth="yes"/>
      <point x="290" y="992" smooth="yes"/>
      <point x="290" y="968" type="curve" smooth="yes"/>
      <point x="290" y="907" smooth="yes"/>
      <point x="337" y="896" smooth="yes"/>
      <point x="384" y="896" type="curve" smooth="yes"/>
      <point x="399" y="896"/>
      <point x="416" y="898"/>
    </contour>
  </outline>
</glyph>
<glyph name="ring.case" format="1">
  <advance width="339"/>
  <outline>
    <contour>
      <point x="252" y="932" type="curve" name="hr00"/>
      <point x="242" y="929" smooth="yes"/>
      <point x="228" y="927" smooth="yes"/>
      <point x="216" y="927" type="curve" smooth="yes"/>
      <point x="197" y="927" smooth="yes"/>
      <point x="177" y="933" smooth="yes"/>
      <point x="177" y="960" type="curve" smooth="yes"/>
      <point x="177" y="975"/>
      <point x="183" y="989"/>
      <point x="187" y="1005" type="curve"/>
      <point x="197" y="1008" smooth="yes"/>
      <point x="211" y="1010" smooth="yes"/>
      <point x="223" y="1010" type="curve" smooth="yes"/>
      <point x="242" y="1010" smooth="yes"/>
      <point x="262" y="1004" smooth="yes"/>
      <point x="262" y="977" type="curve" smooth="yes"/>
      <point x="262" y="962"/>
      <point x="256" y="948"/>
    </contour>
    <contour>
      <point x="317" y="863" type="curve"/>
      <point x="332" y="908" smooth="yes"/>
      <point x="345" y="950" smooth="yes"/>
      <point x="345" y="994" type="curve" smooth="yes"/>
      <point x="345" y="1071" smooth="yes"/>
      <point x="287" y="1091" smooth="yes"/>
      <point x="232" y="1091" type="curve" smooth="yes"/>
      <point x="194" y="1091"/>
      <point x="154" y="1083"/>
      <point x="122" y="1074" type="curve"/>
      <point x="107" y="1029" smooth="yes"/>
      <point x="94" y="987" smooth="yes"/>
      <point x="94" y="943" type="curve" smooth="yes"/>
      <point x="94" y="866" smooth="yes"/>
      <point x="152" y="846" smooth="yes"/>
      <point x="207" y="846" type="curve" smooth="yes"/>
      <point x="245" y="846"/>
      <point x="285" y="854"/>
    </contour>
  </outline>
</glyph>
<glyph name="ringacute.case" format="1">
  <advance width="339"/>
  <outline>
    <contour>
      <point x="317" y="863" type="curve" name="hr00"/>
      <point x="332" y="908" smooth="yes"/>
      <point x="345" y="950" smooth="yes"/>
      <point x="345" y="994" type="curve" smooth="yes"/>
      <point x="345" y="1006"/>
      <point x="343" y="1017"/>
      <point x="341" y="1026" type="curve"/>
      <point x="378" y="1051"/>
      <point x="420" y="1072"/>
      <point x="464" y="1084" type="curve"/>
      <point x="461" y="1151"/>
      <point x="420" y="1179"/>
      <point x="401" y="1191" type="curve"/>
      <point x="357" y="1173"/>
      <point x="311" y="1132"/>
      <point x="272" y="1086" type="curve"/>
      <point x="259" y="1089" smooth="yes"/>
      <point x="245" y="1091" smooth="yes"/>
      <point x="232" y="1091" type="curve" smooth="yes"/>
      <point x="194" y="1091"/>
      <point x="154" y="1083"/>
      <point x="122" y="1074" type="curve"/>
      <point x="107" y="1029" smooth="yes"/>
      <point x="94" y="987" smooth="yes"/>
      <point x="94" y="943" type="curve" smooth="yes"/>
      <point x="94" y="866" smooth="yes"/>
      <point x="152" y="846" smooth="yes"/>
      <point x="207" y="846" type="curve" smooth="yes"/>
      <point x="245" y="846"/>
      <point x="285" y="854"/>
    </contour>
    <contour>
      <point x="252" y="932" type="curve"/>
      <point x="242" y="929" smooth="yes"/>
      <point x="228" y="927" smooth="yes"/>
      <point x="216" y="927" type="curve" smooth="yes"/>
      <point x="197" y="927" smooth="yes"/>
      <point x="177" y="933" smooth="yes"/>
      <point x="177" y="960" type="curve" smooth="yes"/>
      <point x="177" y="975"/>
      <point x="183" y="989"/>
      <point x="187" y="1005" type="curve"/>
      <point x="197" y="1008" smooth="yes"/>
      <point x="211" y="1010" smooth="yes"/>
      <point x="223" y="1010" type="curve" smooth="yes"/>
      <point x="242" y="1010" smooth="yes"/>
      <point x="262" y="1004" smooth="yes"/>
      <point x="262" y="977" type="curve" smooth="yes"/>
      <point x="262" y="962"/>
      <point x="256" y="948"/>
    </contour>
  </outline>
</glyph>
